<svg width="512" height="512" viewBox="0 0 512 512" fill="none" xmlns="http://www.w3.org/2000/svg">
<rect width="512" height="512" rx="128" fill="black"/>
<path d="M187.707 331.82L202.127 316.7H236.707L250.287 331.82H187.707ZM183.507 263.08L198.627 277.64V311.94L183.507 325.66V263.08ZM254.767 325.66L239.647 311.24V276.8L254.767 263.08V325.66ZM199.747 268.12C196.481 265.507 193.167 262.94 189.807 260.42L199.747 253H237.967L247.767 260.42L237.967 268.12H199.747ZM187.567 189.58H250.147L236.287 204.7H201.987L187.567 189.58ZM183.087 258.18V195.6L198.207 209.18V243.9L183.087 258.18Z" fill="#FFC003"/>
<path d="M275.88 331.82L290.3 316.7H324.88L338.46 331.82H275.88ZM271.68 263.08L286.8 277.64V311.94L271.68 325.66V263.08ZM342.94 325.66L327.82 311.24V276.8L342.94 263.08V325.66ZM275.74 189.58H338.32L324.46 204.7H290.16L275.74 189.58ZM271.26 258.18V195.6L286.38 209.18V243.9L271.26 258.18ZM342.52 195.6V258.18L327.4 244.6V210.02L342.52 195.6Z" fill="#FFC003"/>
<path d="M139.194 274.68H156.834V292.18H139.194V274.68ZM139.194 233.1H156.834V251.02H139.194V233.1Z" fill="#FFC003"/>
</svg>
