<svg width="192" height="192" viewBox="0 0 192 192" fill="none" xmlns="http://www.w3.org/2000/svg">
<rect width="192" height="192" rx="48" fill="black"/>
<path d="M70.3903 124.433L75.7978 118.762H88.7653L93.8578 124.433H70.3903ZM68.8153 98.655L74.4853 104.115V116.978L68.8153 122.122V98.655ZM95.5378 122.122L89.8678 116.715V103.8L95.5378 98.655V122.122ZM74.9053 100.545C73.6803 99.565 72.4378 98.6025 71.1778 97.6575L74.9053 94.875H89.2378L92.9128 97.6575L89.2378 100.545H74.9053ZM70.3378 71.0925H93.8053L88.6078 76.7625H75.7453L70.3378 71.0925ZM68.6578 96.8175V73.35L74.3278 78.4425V91.4625L68.6578 96.8175Z" fill="#FFC003"/>
<path d="M103.455 124.433L108.863 118.762H121.83L126.923 124.433H103.455ZM101.88 98.655L107.55 104.115V116.978L101.88 122.122V98.655ZM128.603 122.122L122.933 116.715V103.8L128.603 98.655V122.122ZM103.403 71.0925H126.87L121.673 76.7625H108.81L103.403 71.0925ZM101.723 96.8175V73.35L107.393 78.4425V91.4625L101.723 96.8175ZM128.445 73.35V96.8175L122.775 91.725V78.7575L128.445 73.35Z" fill="#FFC003"/>
<path d="M52.1976 103.005H58.8126V109.568H52.1976V103.005ZM52.1976 87.4125H58.8126V94.1325H52.1976V87.4125Z" fill="#FFC003"/>
</svg>
