<svg width="144" height="144" viewBox="0 0 144 144" fill="none" xmlns="http://www.w3.org/2000/svg">
<rect width="144" height="144" rx="36" fill="black"/>
<path d="M52.7927 93.3244L56.8483 89.0719H66.5739L70.3933 93.3244H52.7927ZM51.6114 73.9912L55.8639 78.0862V87.7331L51.6114 91.5919V73.9912ZM71.6533 91.5919L67.4008 87.5362V77.85L71.6533 73.9912V91.5919ZM56.1789 75.4087C55.2602 74.6737 54.3283 73.9519 53.3833 73.2431L56.1789 71.1562H66.9283L69.6845 73.2431L66.9283 75.4087H56.1789ZM52.7533 53.3194H70.3539L66.4558 57.5719H56.8089L52.7533 53.3194ZM51.4933 72.6131V55.0125L55.7458 58.8319V68.5969L51.4933 72.6131Z" fill="#FFC003"/>
<path d="M77.5912 93.3244L81.6468 89.0719H91.3725L95.1918 93.3244H77.5912ZM76.41 73.9912L80.6625 78.0862V87.7331L76.41 91.5919V73.9912ZM96.4518 91.5919L92.1993 87.5362V77.85L96.4518 73.9912V91.5919ZM77.5518 53.3194H95.1525L91.2543 57.5719H81.6075L77.5518 53.3194ZM76.2918 72.6131V55.0125L80.5443 58.8319V68.5969L76.2918 72.6131ZM96.3337 55.0125V72.6131L92.0812 68.7937V59.0681L96.3337 55.0125Z" fill="#FFC003"/>
<path d="M39.1482 77.2537H44.1094V82.1756H39.1482V77.2537ZM39.1482 65.5594H44.1094V70.5994H39.1482V65.5594Z" fill="#FFC003"/>
</svg>
