<svg width="72" height="72" viewBox="0 0 72 72" fill="none" xmlns="http://www.w3.org/2000/svg">
<g clip-path="url(#clip0_170_934)">
<rect width="72" height="72" fill="black"/>
<path d="M18.7459 37.24H21.2659V39.74H18.7459V37.24ZM18.7459 31.3H21.2659V33.86H18.7459V31.3ZM31.542 47.26L33.602 45.1H38.542L40.482 47.26H31.542ZM30.942 37.44L33.102 39.52V44.42L30.942 46.38V37.44ZM41.122 46.38L38.962 44.32V39.4L41.122 37.44V46.38ZM31.522 26.94H40.462L38.482 29.1H33.582L31.522 26.94ZM30.882 36.74V27.8L33.042 29.74V34.7L30.882 36.74ZM41.062 27.8V36.74L38.902 34.8V29.86L41.062 27.8ZM47.538 47.26L49.598 45.1H54.538L56.478 47.26H47.538ZM46.938 37.44L49.098 39.52V44.42L46.938 46.38V37.44ZM57.118 46.38L54.958 44.32V39.4L57.118 37.44V46.38ZM47.518 26.94H56.458L54.478 29.1H49.578L47.518 26.94ZM46.878 36.74V27.8L49.038 29.74V34.7L46.878 36.74ZM57.058 27.8V36.74L54.898 34.8V29.86L57.058 27.8Z" fill="#FFC003"/>
</g>
<defs>
<clipPath id="clip0_170_934">
<rect width="72" height="72" fill="white"/>
</clipPath>
</defs>
</svg>
