<svg width="72" height="72" viewBox="0 0 72 72" fill="none" xmlns="http://www.w3.org/2000/svg">
<rect width="72" height="72" fill="black"/>
<path d="M23.0005 52L25.9731 48.811H33.1013L35.9007 52H23.0005ZM22.1348 37.502L25.2516 40.5728V47.8071L22.1348 50.7008V37.502ZM36.8242 50.7008L33.7074 47.6594V40.3957L36.8242 37.502V50.7008ZM25.4825 38.565C24.8091 38.0138 24.1261 37.4724 23.4334 36.9409L25.4825 35.376H33.3611L35.3812 36.9409L33.3611 38.565H25.4825ZM22.9717 22H35.8718L33.0148 25.189H25.9442L22.9717 22ZM22.0482 36.4685V23.2697L25.165 26.1339V33.4567L22.0482 36.4685Z" fill="#FFC003"/>
<path d="M41.1763 52L44.1489 48.811H51.2771L54.0765 52H41.1763ZM40.3106 37.502L43.4274 40.5728V47.8071L40.3106 50.7008V37.502ZM55 50.7008L51.8832 47.6594V40.3957L55 37.502V50.7008ZM41.1475 22H54.0476L51.1906 25.189H44.12L41.1475 22ZM40.224 36.4685V23.2697L43.3408 26.1339V33.4567L40.224 36.4685ZM54.9134 23.2697V36.4685L51.7966 33.6043V26.311L54.9134 23.2697Z" fill="#FFC003"/>
<path d="M13 39.9485H16.6363V43.6395H13V39.9485ZM13 31.1789H16.6363V34.9584H13V31.1789Z" fill="#FFC003"/>
</svg>
