<svg width="144" height="144" viewBox="0 0 144 144" fill="none" xmlns="http://www.w3.org/2000/svg">
<rect width="144" height="144" fill="black"/>
<path d="M37.4917 73.48H42.5317V78.48H37.4917V73.48ZM37.4917 61.6H42.5317V66.72H37.4917V61.6ZM63.0839 93.52L67.2039 89.2H77.0839L80.9639 93.52H63.0839ZM61.8839 73.88L66.2039 78.04V87.84L61.8839 91.76V73.88ZM82.2439 91.76L77.9239 87.64V77.8L82.2439 73.88V91.76ZM63.0439 52.88H80.9239L76.9639 57.2H67.1639L63.0439 52.88ZM61.7639 72.48V54.6L66.0839 58.48V68.4L61.7639 72.48ZM82.1239 54.6V72.48L77.8039 68.6V58.72L82.1239 54.6ZM95.0761 93.52L99.1961 89.2H109.076L112.956 93.52H95.0761ZM93.8761 73.88L98.1961 78.04V87.84L93.8761 91.76V73.88ZM114.236 91.76L109.916 87.64V77.8L114.236 73.88V91.76ZM95.0361 52.88H112.916L108.956 57.2H99.1561L95.0361 52.88ZM93.7561 72.48V54.6L98.0761 58.48V68.4L93.7561 72.48ZM114.116 54.6V72.48L109.796 68.6V58.72L114.116 54.6Z" fill="#FFC003"/>
</svg>
