<svg width="96" height="96" viewBox="0 0 96 96" fill="none" xmlns="http://www.w3.org/2000/svg">
<g clip-path="url(#clip0_172_950)">
<rect width="96" height="96" fill="black"/>
<path d="M26.4323 48.8H29.5823V51.925H26.4323V48.8ZM26.4323 41.375H29.5823V44.575H26.4323V41.375ZM42.4274 61.325L45.0024 58.625H51.1774L53.6024 61.325H42.4274ZM41.6774 49.05L44.3774 51.65V57.775L41.6774 60.225V49.05ZM54.4024 60.225L51.7024 57.65V51.5L54.4024 49.05V60.225ZM44.5774 49.95C43.9941 49.4833 43.4024 49.025 42.8024 48.575L44.5774 47.25H51.4024L53.1524 48.575L51.4024 49.95H44.5774ZM42.4024 35.925H53.5774L51.1024 38.625H44.9774L42.4024 35.925ZM41.6024 48.175V37L44.3024 39.425V45.625L41.6024 48.175ZM62.4226 61.325L64.9976 58.625H71.1726L73.5976 61.325H62.4226ZM61.6726 49.05L64.3726 51.65V57.775L61.6726 60.225V49.05ZM74.3976 60.225L71.6976 57.65V51.5L74.3976 49.05V60.225ZM62.3976 35.925H73.5726L71.0976 38.625H64.9726L62.3976 35.925ZM61.5976 48.175V37L64.2976 39.425V45.625L61.5976 48.175ZM74.3226 37V48.175L71.6226 45.75V39.575L74.3226 37Z" fill="#FFC003"/>
</g>
<defs>
<clipPath id="clip0_172_950">
<rect width="96" height="96" fill="white"/>
</clipPath>
</defs>
</svg>
