<svg width="96" height="96" viewBox="0 0 96 96" fill="none" xmlns="http://www.w3.org/2000/svg">
<g clip-path="url(#clip0_172_946)">
<rect width="96" height="96" fill="black"/>
<path d="M26.4323 48.8H29.5823V51.925H26.4323V48.8ZM26.4323 41.375H29.5823V44.575H26.4323V41.375ZM54.4024 60.225L51.7024 57.65V51.5L54.4024 49.05V60.225ZM54.3274 37V48.175L51.6274 45.75V39.575L54.3274 37ZM62.4226 61.325L64.9976 58.625H71.1726L73.5976 61.325H62.4226ZM74.3976 60.225L71.6976 57.65V51.5L74.3976 49.05V60.225ZM64.5726 49.95C63.9892 49.4833 63.3976 49.025 62.7976 48.575L64.5726 47.25H71.3976L73.1476 48.575L71.3976 49.95H64.5726ZM62.3976 35.925H73.5726L71.0976 38.625H64.9726L62.3976 35.925ZM61.5976 48.175V37L64.2976 39.425V45.625L61.5976 48.175Z" fill="#FFC003"/>
</g>
<defs>
<clipPath id="clip0_172_946">
<rect width="96" height="96" fill="white"/>
</clipPath>
</defs>
</svg>
