<svg width="96" height="96" viewBox="0 0 96 96" fill="none" xmlns="http://www.w3.org/2000/svg">
<g clip-path="url(#clip0_172_952)">
<rect width="96" height="96" fill="black"/>
<path d="M36.4299 48.8H39.5799V51.925H36.4299V48.8ZM36.4299 41.375H39.5799V44.575H36.4299V41.375ZM52.425 61.325L55 58.625H61.175L63.6 61.325H52.425ZM64.4 60.225L61.7 57.65V51.5L64.4 49.05V60.225ZM54.575 49.95C53.9917 49.4833 53.4 49.025 52.8 48.575L54.575 47.25H61.4L63.15 48.575L61.4 49.95H54.575ZM52.4 35.925H63.575L61.1 38.625H54.975L52.4 35.925ZM51.6 48.175V37L54.3 39.425V45.625L51.6 48.175Z" fill="#FFC003"/>
</g>
<defs>
<clipPath id="clip0_172_952">
<rect width="96" height="96" fill="white"/>
</clipPath>
</defs>
</svg>
