<svg width="512" height="512" viewBox="0 0 512 512" fill="none" xmlns="http://www.w3.org/2000/svg">
<rect width="512" height="512" fill="black"/>
<path d="M388 241H391.6C395.419 241 399.082 242.58 401.782 245.393C404.483 248.206 406 252.022 406 256C406 259.978 404.483 263.794 401.782 266.607C399.082 269.42 395.419 271 391.6 271H388" stroke="#FFC003" stroke-width="6" stroke-linecap="round" stroke-linejoin="round"/>
<path d="M336 241H388V274.231C388 278.148 386.435 281.904 383.648 284.674C380.862 287.444 377.083 289 373.143 289H350.857C346.917 289 343.138 287.444 340.352 284.674C337.565 281.904 336 278.148 336 274.231V241Z" stroke="#FFC003" stroke-width="6" stroke-linecap="round" stroke-linejoin="round"/>
<path d="M347 219V226" stroke="#FFC003" stroke-width="6" stroke-linecap="round" stroke-linejoin="round"/>
<path d="M362 219V226" stroke="#FFC003" stroke-width="6" stroke-linecap="round" stroke-linejoin="round"/>
<path d="M377 219V226" stroke="#FFC003" stroke-width="6" stroke-linecap="round" stroke-linejoin="round"/>
<path d="M112.729 258.2H125.329V270.7H112.729V258.2ZM112.729 228.5H125.329V241.3H112.729V228.5ZM176.71 308.3L187.01 297.5H211.71L221.41 308.3H176.71ZM173.71 259.2L184.51 269.6V294.1L173.71 303.9V259.2ZM224.61 303.9L213.81 293.6V269L224.61 259.2V303.9ZM176.61 206.7H221.31L211.41 217.5H186.91L176.61 206.7ZM173.41 255.7V211L184.21 220.7V245.5L173.41 255.7ZM224.31 211V255.7L213.51 246V221.3L224.31 211ZM256.69 308.3L266.99 297.5H291.69L301.39 308.3H256.69ZM253.69 259.2L264.49 269.6V294.1L253.69 303.9V259.2ZM304.59 303.9L293.79 293.6V269L304.59 259.2V303.9ZM256.59 206.7H301.29L291.39 217.5H266.89L256.59 206.7ZM253.39 255.7V211L264.19 220.7V245.5L253.39 255.7ZM304.29 211V255.7L293.49 246V221.3L304.29 211Z" fill="#FFC003"/>
</svg>
