<svg width="96" height="96" viewBox="0 0 96 96" fill="none" xmlns="http://www.w3.org/2000/svg">
<path d="M16.2771 50.056H21.0651V54.806H16.2771V50.056ZM16.2771 38.77H21.0651V43.634H16.2771V38.77ZM36.0297 69.094L39.9437 64.99H49.3297L53.0157 69.094H36.0297ZM34.8897 50.436L38.9937 54.388V63.698L34.8897 67.422V50.436ZM54.2317 67.422L50.1277 63.508V54.16L54.2317 50.436V67.422ZM35.9917 30.486H52.9777L49.2157 34.59H39.9057L35.9917 30.486ZM34.7757 49.106V32.12L38.8797 35.806V45.23L34.7757 49.106ZM54.1177 32.12V49.106L50.0137 45.42V36.034L54.1177 32.12ZM61.8623 69.094L65.7763 64.99H75.1623L78.8483 69.094H61.8623ZM80.0643 67.422L75.9603 63.508V54.16L80.0643 50.436V67.422ZM65.1303 51.804C64.2436 51.0947 63.3443 50.398 62.4323 49.714L65.1303 47.7H75.5043L78.1643 49.714L75.5043 51.804H65.1303ZM61.8243 30.486H78.8103L75.0483 34.59H65.7383L61.8243 30.486ZM60.6083 49.106V32.12L64.7123 35.806V45.23L60.6083 49.106Z" fill="black"/>
</svg>
