<svg width="96" height="96" viewBox="0 0 96 96" fill="none" xmlns="http://www.w3.org/2000/svg">
<path d="M16.2771 50.056H21.0651V54.806H16.2771V50.056ZM16.2771 38.77H21.0651V43.634H16.2771V38.77ZM36.1437 69.094L39.9817 64.99H49.4057L53.0917 69.094H36.1437ZM54.2697 67.422L50.2037 63.508V54.16L54.2697 50.436V67.422ZM39.3357 51.804C38.4744 51.0947 37.5877 50.398 36.6757 49.714L39.3357 47.7H49.7097L52.3697 49.714L49.7097 51.804H39.3357ZM36.0297 30.486H53.0537L49.3297 34.59H39.9437L36.0297 30.486ZM54.1557 32.12V49.106L50.0897 45.42V36.034L54.1557 32.12ZM61.8623 69.094L65.7763 64.99H75.1623L78.8483 69.094H61.8623ZM60.7223 50.436L64.8263 54.388V63.698L60.7223 67.422V50.436ZM80.0643 67.422L75.9603 63.508V54.16L80.0643 50.436V67.422ZM61.8243 30.486H78.8103L75.0483 34.59H65.7383L61.8243 30.486ZM60.6083 49.106V32.12L64.7123 35.806V45.23L60.6083 49.106ZM79.9503 32.12V49.106L75.8463 45.42V36.034L79.9503 32.12Z" fill="black"/>
</svg>
