<svg width="96" height="96" viewBox="0 0 96 96" fill="none" xmlns="http://www.w3.org/2000/svg">
<path d="M16.2771 50.056H21.0651V54.806H16.2771V50.056ZM16.2771 38.77H21.0651V43.634H16.2771V38.77ZM36.0297 69.094L39.9437 64.99H49.3297L53.0157 69.094H36.0297ZM34.8897 50.436L38.9937 54.388V63.698L34.8897 67.422V50.436ZM54.2317 67.422L50.1277 63.508V54.16L54.2317 50.436V67.422ZM39.2977 51.804C38.411 51.0947 37.5117 50.398 36.5997 49.714L39.2977 47.7H49.6717L52.3317 49.714L49.6717 51.804H39.2977ZM35.9917 30.486H52.9777L49.2157 34.59H39.9057L35.9917 30.486ZM34.7757 49.106V32.12L38.8797 35.806V45.23L34.7757 49.106ZM61.8623 69.094L65.7763 64.99H75.1623L78.8483 69.094H61.8623ZM60.7223 50.436L64.8263 54.388V63.698L60.7223 67.422V50.436ZM80.0643 67.422L75.9603 63.508V54.16L80.0643 50.436V67.422ZM61.8243 30.486H78.8103L75.0483 34.59H65.7383L61.8243 30.486ZM60.6083 49.106V32.12L64.7123 35.806V45.23L60.6083 49.106ZM79.9503 32.12V49.106L75.8463 45.42V36.034L79.9503 32.12Z" fill="black"/>
</svg>
